<svg xmlns="http://www.w3.org/2000/svg" xmlns:xlink="http://www.w3.org/1999/xlink"><symbol id="logo" viewBox="0 0 256 26"><path d="M15.534 2.575v10.407c0 .73-.246 1.353-.738 1.87a2.553 2.553 0 01-1.828.74H5.166V26H0V0h12.968c.703 0 1.312.247 1.828.74.492.518.738 1.13.738 1.835zM5.166 10.407h5.202V5.186H5.166v5.221zm34.535 2.575c.703 0 1.312.26 1.828.776.492.494.738 1.106.738 1.835V26H37.1V15.593h-5.202V26h-5.166V0H39.7c.703 0 1.312.247 1.828.74.492.518.738 1.13.738 1.835v7.832c0 .706-.246 1.317-.738 1.835a2.553 2.553 0 01-1.828.74zm-2.6-2.575V5.186h-5.202v5.221h5.202zM69 2.575V23.39c0 .73-.246 1.341-.738 1.835-.515.517-1.125.776-1.828.776H56.067a2.423 2.423 0 01-1.828-.776c-.515-.494-.773-1.105-.773-1.835V2.575c0-.705.258-1.317.773-1.834C54.731.247 55.341 0 56.067 0h10.367c.703 0 1.313.247 1.828.74.492.518.738 1.13.738 1.835zm-10.368 18.24h5.202V5.184h-5.202v15.63z" fill="#3C91D3"/><path d="M92.047 0c.707 0 1.32.247 1.839.74.495.518.742 1.13.742 1.835v10.407c0 .73-.247 1.353-.742 1.87a2.577 2.577 0 01-1.84.74h-7.848V26H79V0h13.047zm26.895 0c.707 0 1.32.247 1.839.74.495.518.742 1.13.742 1.835V26h-5.197V15.593h-5.233V26h-5.198V2.575c0-.705.26-1.317.778-1.834.495-.494 1.108-.741 1.839-.741h10.43zm26.896 0c.707 0 1.32.247 1.838.74.495.518.743 1.13.743 1.835v7.832c0 .706-.248 1.317-.743 1.835a2.577 2.577 0 01-1.838.74c.707 0 1.32.26 1.838.776.495.494.743 1.106.743 1.835V26h-5.198V15.593h-5.233V26h-5.197V0h13.047zm29.476 0v5.186h-5.198V26h-5.232V5.186h-5.198V0h15.628zm24.314 0c.707 0 1.32.247 1.839.74.495.518.742 1.13.742 1.835V26h-5.197V5.186h-5.233V26h-5.198V0h13.047zm29.477 0v5.186h-10.43v5.221h7.849v5.186h-7.85v5.221h10.43V26h-15.627V0h15.628zm24.314 0c.707 0 1.32.247 1.838.74.495.518.743 1.13.743 1.835v7.832c0 .706-.248 1.317-.743 1.835a2.577 2.577 0 01-1.838.74c.707 0 1.32.26 1.838.776.495.494.743 1.106.743 1.835V26h-5.198V15.593h-5.232V26h-5.198V0h13.047zM89.43 5.186h-5.232v5.221h5.232V5.186zm26.896 0h-5.233v5.221h5.233V5.186zm26.895 0h-5.233v5.221h5.233V5.186zm107.581 0h-5.232v5.221h5.232V5.186z" fill="#ED7932"/></symbol></svg>