<svg xmlns="http://www.w3.org/2000/svg" xmlns:xlink="http://www.w3.org/1999/xlink"><symbol id="location" viewBox="0 0 391 511.24"><path class="cls-1" d="M391 180v33a23.66 23.66 0 00-.78 3.36 206.55 206.55 0 01-6.37 34.82c-7.63 28.43-20.54 54.43-36.54 79s-34.54 47-54.24 68.48c-20.13 22-40.69 43.6-60.82 65.6-12.71 13.89-24.86 28.28-34.75 44.41a28.32 28.32 0 01-2.1 2.58c-1-1.45-1.84-2.66-2.72-3.84-6.92-9.37-13.26-19.25-20.92-28-16.8-19.15-34.17-37.81-51.5-56.49-18.13-19.55-36.28-39.07-52.83-60-18.87-23.85-35.64-49-47.93-77-7.87-17.9-13.8-36.39-16.8-55.76C1.82 224.46.9 218.73 0 213v-33a25.11 25.11 0 00.78-3.36 183.64 183.64 0 0111.47-49.44Q37.9 60.55 100 25.22A188.58 188.58 0 01184.61.7c1.8-.09 3.59-.46 5.39-.7h11c2.13.26 4.26.5 6.39.77 9.24 1.17 18.6 1.72 27.68 3.61 41 8.62 75.93 28.25 104.28 59.08 27.63 30 44.37 65.27 49.95 105.75.5 3.61 1.13 7.19 1.7 10.79zM195.18 287.26c49.07.55 90.37-38.94 91.63-88.78 1.33-52.75-41.42-93.24-90.24-93.75-49.21-.52-91.45 38.77-92.4 89.62-.96 51.35 40.73 93.13 91.01 92.91z"/></symbol><symbol id="logo" viewBox="0 0 256 26"><path d="M15.534 2.575v10.407c0 .73-.246 1.353-.738 1.87a2.553 2.553 0 01-1.828.74H5.166V26H0V0h12.968c.703 0 1.312.247 1.828.74.492.518.738 1.13.738 1.835zM5.166 10.407h5.202V5.186H5.166v5.221zm34.535 2.575c.703 0 1.312.26 1.828.776.492.494.738 1.106.738 1.835V26H37.1V15.593h-5.202V26h-5.166V0H39.7c.703 0 1.312.247 1.828.74.492.518.738 1.13.738 1.835v7.832c0 .706-.246 1.317-.738 1.835a2.553 2.553 0 01-1.828.74zm-2.6-2.575V5.186h-5.202v5.221h5.202zM69 2.575V23.39c0 .73-.246 1.341-.738 1.835-.515.517-1.125.776-1.828.776H56.067a2.423 2.423 0 01-1.828-.776c-.515-.494-.773-1.105-.773-1.835V2.575c0-.705.258-1.317.773-1.834C54.731.247 55.341 0 56.067 0h10.367c.703 0 1.313.247 1.828.74.492.518.738 1.13.738 1.835zm-10.368 18.24h5.202V5.184h-5.202v15.63z"/><path d="M92.047 0c.707 0 1.32.247 1.839.74.495.518.742 1.13.742 1.835v10.407c0 .73-.247 1.353-.742 1.87a2.577 2.577 0 01-1.84.74h-7.848V26H79V0h13.047zm26.895 0c.707 0 1.32.247 1.839.74.495.518.742 1.13.742 1.835V26h-5.197V15.593h-5.233V26h-5.198V2.575c0-.705.26-1.317.778-1.834.495-.494 1.108-.741 1.839-.741h10.43zm26.896 0c.707 0 1.32.247 1.838.74.495.518.743 1.13.743 1.835v7.832c0 .706-.248 1.317-.743 1.835a2.577 2.577 0 01-1.838.74c.707 0 1.32.26 1.838.776.495.494.743 1.106.743 1.835V26h-5.198V15.593h-5.233V26h-5.197V0h13.047zm29.476 0v5.186h-5.198V26h-5.232V5.186h-5.198V0h15.628zm24.314 0c.707 0 1.32.247 1.839.74.495.518.742 1.13.742 1.835V26h-5.197V5.186h-5.233V26h-5.198V0h13.047zm29.477 0v5.186h-10.43v5.221h7.849v5.186h-7.85v5.221h10.43V26h-15.627V0h15.628zm24.314 0c.707 0 1.32.247 1.838.74.495.518.743 1.13.743 1.835v7.832c0 .706-.248 1.317-.743 1.835a2.577 2.577 0 01-1.838.74c.707 0 1.32.26 1.838.776.495.494.743 1.106.743 1.835V26h-5.198V15.593h-5.232V26h-5.198V0h13.047zM89.43 5.186h-5.232v5.221h5.232V5.186zm26.896 0h-5.233v5.221h5.233V5.186zm26.895 0h-5.233v5.221h5.233V5.186zm107.581 0h-5.232v5.221h5.232V5.186z" fill="#ED7932"/></symbol></svg>