<svg xmlns="http://www.w3.org/2000/svg" viewBox="0 0 512 512"><path d="M25,0H493a88.76,88.76,0,0,1,9,4.11c5.31,3.11,8,8.27,10,13.89V30c-1.77,7.59-3.64,15.16-5.31,22.77q-12.35,56.53-24.6,113.09c-6.51,29.9-13.17,59.77-19.54,89.69-4,18.85-24.15,32.88-41,32.78-44.16-.26-88.32-.07-132.47-.07H134.58c-1.33,0-2.67.09-4,0-1.76-.08-2.36.8-2.3,2.43,0,1,0,2,0,3q0,26.49,0,53c0,.83.07,1.67,0,2.49-.13,2,.91,2.65,2.74,2.55.83-.05,1.66,0,2.49,0H286q81.22,0,162.46,0a32.1,32.1,0,0,1,31.69,27.78c2.1,16.67-8.17,32-24.38,35.71-4.15,1-8.58.94-12.88,1-11.09.13-22.19,0-34.09,0l5.1,1.45c20.81,6,34.46,26,34.5,46.35,0,18.92-12.72,39.91-34.66,46.24-1.91.55-3.81,1.12-5.71,1.69H392c-1.11-.32-2.21-.67-3.33-.95-36.05-9-49.24-52.88-23.92-80a52.37,52.37,0,0,1,11.74-9.18c4.22-2.47,9.05-3.88,13-5.51H153.11l4.31,1.22c20.13,5.53,35.22,25.1,34.9,47a48.56,48.56,0,0,1-34.61,45.72L152,512H136c-1.11-.32-2.21-.67-3.33-.95a48.38,48.38,0,0,1-4.51-92.72c2-.68,4.05-1.22,6.92-2.08H115.2c-6.33,0-12.66,0-19,0-17.47-.15-32.6-15.35-32.54-32.53.21-70,.08-139.95.08-209.92q0-52.47,0-104.95c0-4.56,0-4.58-4.67-4.58-9.16,0-18.33.1-27.49,0A32.18,32.18,0,0,1,1.69,43.08C1.17,41.7.56,40.36,0,39V25a22.44,22.44,0,0,0,1-2.19C4.52,12.05,11.68,4.87,22.39,1.18,23.29.87,24.13.4,25,0Z"/></svg>
