<svg xmlns="http://www.w3.org/2000/svg" viewBox="0 0 497.4 488.37"><path d="M493.93,207.7A249.9,249.9,0,0,0,358,25.3,245.38,245.38,0,0,0,314.11,8.76,242.28,242.28,0,0,0,262,.34a246.58,246.58,0,0,0-43.86,1.58,254.47,254.47,0,0,0-45.25,9.87A249.33,249.33,0,0,0,40.68,112.33,245.29,245.29,0,0,0,6.16,193.17,234,234,0,0,0,0,243.58c0,8.15.45,16.3.83,24.44A211.53,211.53,0,0,0,7.61,310.3c10.24,40.35,29.7,75.78,57.63,106.53a241.81,241.81,0,0,0,50.05,41.92,246.64,246.64,0,0,0,63.45,28.76c5,1.45,5.18,1,7.68-2.76a69.91,69.91,0,0,1,24.71-22.84c3.33-1.81,4.21-3.88,4.18-7.44-.15-22.5-.06-45-.05-67.5,0-3.17-.09-6.34,0-9.5.05-2-.68-3.15-2.67-3.54a23.42,23.42,0,0,1-2.36-.8,122,122,0,0,1-37.6-19.22,126.87,126.87,0,0,1-37.48-44.82c-10-19.57-13.45-40.62-13.83-62.25s-.08-43.33-.08-65q0-27.25,0-54.5c0-5,0-10,0-15,0-1.88.77-2.83,2.65-2.75,3.32.13,6.64.45,10,.42,9-.07,17.93-.43,26.9-.42,10.8,0,21.6.39,32.4.41,8.3,0,16.6-.36,24.9-.39,5.32,0,10.64.42,16,.39,9.63,0,19.27-.41,28.9-.41,10.3,0,20.6.42,30.9.42,10.8,0,21.6-.32,32.4-.43,3.15,0,6.3.26,9.45.25,11.47,0,22.94-.13,34.41-.19a12.9,12.9,0,0,1,1.48.22c4.3.55,4.39.55,4.35,4.66-.51,48.13,1.1,96.28-.87,144.4a105,105,0,0,1-1.35,14.4c-3,16.18-8.33,31.5-17.12,45.51a126.79,126.79,0,0,1-70.76,54.68c-3.83,1.16-3.88,1.28-3.88,5.14,0,25.83,0,51.66-.06,77.5a5,5,0,0,0,3,5.09,72.5,72.5,0,0,1,26.26,24c2.4,3.54,2.44,3.53,6.46,2.42A240,240,0,0,0,379.86,460a250.15,250.15,0,0,0,56.08-47.8,247.57,247.57,0,0,0,60.94-147.77A242,242,0,0,0,493.93,207.7Z"/><path d="M272,235.66q9-7.86,9-20.56,0-13.87-9.36-22.9Q262.5,183,248.62,183t-23.07,9.2q-9.37,9-9.37,22.9,0,13.38,9,20.56-15.89,9.53-15.88,28.59,0,16.71,11.53,27.92,11.37,11.2,27.92,11.2t27.75-11.2a37.69,37.69,0,0,0,11.54-27.92Q288.07,244.86,272,235.66Zm-31.09-29.42a10.5,10.5,0,0,1,15.38,0,12.85,12.85,0,0,1,3.17,8.94,12.44,12.44,0,0,1-3.34,8.95,9.84,9.84,0,0,1-7.52,3.51,10.32,10.32,0,0,1-7.69-3.51q-3.18-3.34-3.18-9T240.93,206.24Zm20.47,72a17.05,17.05,0,0,1-12.78,5.26,16.79,16.79,0,0,1-12.71-5.26,18.51,18.51,0,0,1-5-13.29,19,19,0,0,1,5-13.54A16.65,16.65,0,0,1,248.62,246a16.91,16.91,0,0,1,12.78,5.35,18.82,18.82,0,0,1,5.1,13.54A18.33,18.33,0,0,1,261.4,278.21Z"/></svg>
