<svg xmlns="http://www.w3.org/2000/svg" viewBox="0 0 391 511.24"><path class="cls-1" d="M391,180v33a23.66,23.66,0,0,0-.78,3.36,206.55,206.55,0,0,1-6.37,34.82c-7.63,28.43-20.54,54.43-36.54,79s-34.54,47-54.24,68.48c-20.13,22-40.69,43.6-60.82,65.6-12.71,13.89-24.86,28.28-34.75,44.41a28.32,28.32,0,0,1-2.1,2.58c-1-1.45-1.84-2.66-2.72-3.84-6.92-9.37-13.26-19.25-20.92-28-16.8-19.15-34.17-37.81-51.5-56.49-18.13-19.55-36.28-39.07-52.83-60-18.87-23.85-35.64-49-47.93-77-7.87-17.9-13.8-36.39-16.8-55.76C1.82,224.46.9,218.73,0,213V180a25.11,25.11,0,0,0,.78-3.36A183.64,183.64,0,0,1,12.25,127.2Q37.9,60.55,100,25.22A188.58,188.58,0,0,1,184.61.7C186.41.61,188.2.24,190,0h11c2.13.26,4.26.5,6.39.77,9.24,1.17,18.6,1.72,27.68,3.61C276.07,13,311,32.63,339.35,63.46c27.63,30,44.37,65.27,49.95,105.75C389.8,172.82,390.43,176.4,391,180ZM195.18,287.26c49.07.55,90.37-38.94,91.63-88.78,1.33-52.75-41.42-93.24-90.24-93.75-49.21-.52-91.45,38.77-92.4,89.62C103.21,245.7,144.9,287.48,195.18,287.26Z"/></svg>
