<?xml version="1.0" encoding="UTF-8"?>
<svg width="256px" height="26px" viewBox="0 0 256 26" version="1.1" xmlns="http://www.w3.org/2000/svg">
    <!-- Generator: Sketch 58 (84663) - https://sketch.com -->
    <title>лого</title>
    <desc>Created with Sketch.</desc>
    <g id="descktop" stroke="none" stroke-width="1" fill="none" fill-rule="evenodd">
        <g id="desc_home" transform="translate(-277.000000, -27.000000)">
            <g id="top">
                <g transform="translate(277.000000, 15.000000)" id="лого">
                    <g transform="translate(0.000000, 12.000000)">
                        <path d="M15.5337861,2.57530529 L15.5337861,12.9823609 C15.5337861,13.7114464 15.2877784,14.3346876 14.7957555,14.8521031 C14.280303,15.3459998 13.671141,15.5929444 12.9682513,15.5929444 L5.16621392,15.5929444 L5.16621392,26 L0,26 L0,0 L12.9682513,0 C13.671141,0 14.280303,0.246944613 14.7957555,0.740841248 C15.2877784,1.25825677 15.5337861,1.86973867 15.5337861,2.57530529 Z M5.16621392,10.4070556 L10.3675722,10.4070556 L10.3675722,5.18588874 L5.16621392,5.18588874 L5.16621392,10.4070556 Z M39.7013582,12.9823609 C40.404248,12.9823609 41.01341,13.2410648 41.5288625,13.7584803 C42.0208853,14.252377 42.266893,14.8638589 42.266893,15.5929444 L42.266893,26 L37.1006791,26 L37.1006791,15.5929444 L31.8993209,15.5929444 L31.8993209,26 L26.733107,26 L26.733107,0 L39.7013582,0 C40.404248,0 41.01341,0.246944613 41.5288625,0.740841248 C42.0208853,1.25825677 42.266893,1.86973867 42.266893,2.57530529 L42.266893,10.4070556 C42.266893,11.1126223 42.0208853,11.7241042 41.5288625,12.2415197 C41.01341,12.7354163 40.404248,12.9823609 39.7013582,12.9823609 Z M37.1006791,10.4070556 L37.1006791,5.18588874 L31.8993209,5.18588874 L31.8993209,10.4070556 L37.1006791,10.4070556 Z M69,2.57530529 L69,23.3894166 C69,24.1185021 68.7539923,24.729984 68.2619694,25.2238806 C67.7465169,25.7412961 67.137355,26 66.4344652,26 L56.066893,26 C55.3405736,26 54.7314116,25.7412961 54.2393888,25.2238806 C53.7239363,24.729984 53.4662139,24.1185021 53.4662139,23.3894166 L53.4662139,2.57530529 C53.4662139,1.86973867 53.7239363,1.25825677 54.2393888,0.740841248 C54.7314116,0.246944613 55.3405736,0 56.066893,0 L66.4344652,0 C67.137355,0 67.7465169,0.246944613 68.2619694,0.740841248 C68.7539923,1.25825677 69,1.86973867 69,2.57530529 Z M58.6324278,20.8141113 L63.8337861,20.8141113 L63.8337861,5.18588874 L58.6324278,5.18588874 L58.6324278,20.8141113 Z"
                              id="propartner" fill="#3C91D3"></path>
                        <path d="M92.0469437,0 C92.7540986,0 93.3669571,0.246944613 93.8855374,0.740841248 C94.3805458,1.25825677 94.6280463,1.86973867 94.6280463,2.57530529 L94.6280463,12.9823609 C94.6280463,13.7114464 94.3805458,14.3346876 93.8855374,14.8521031 C93.3669571,15.3459998 92.7540986,15.5929444 92.0469437,15.5929444 L84.1975629,15.5929444 L84.1975629,26 L79,26 L79,0 L92.0469437,0 Z M118.942269,0 C119.649424,0 120.262283,0.246944613 120.780863,0.740841248 C121.275871,1.25825677 121.523372,1.86973867 121.523372,2.57530529 L121.523372,26 L116.325809,26 L116.325809,15.5929444 L111.092889,15.5929444 L111.092889,26 L105.895326,26 L105.895326,2.57530529 C105.895326,1.86973867 106.154612,1.25825677 106.673192,0.740841248 C107.168201,0.246944613 107.781059,0 108.511786,0 L118.942269,0 Z M145.837595,0 C146.54475,0 147.157608,0.246944613 147.676189,0.740841248 C148.171197,1.25825677 148.418698,1.86973867 148.418698,2.57530529 L148.418698,10.4070556 C148.418698,11.1126223 148.171197,11.7241042 147.676189,12.2415197 C147.157608,12.7354163 146.54475,12.9823609 145.837595,12.9823609 C146.54475,12.9823609 147.157608,13.2410648 147.676189,13.7584803 C148.171197,14.252377 148.418698,14.8638589 148.418698,15.5929444 L148.418698,26 L143.221135,26 L143.221135,15.5929444 L137.988214,15.5929444 L137.988214,26 L132.790651,26 L132.790651,0 L145.837595,0 Z M175.314023,0 L175.314023,5.18588874 L170.11646,5.18588874 L170.11646,26 L164.88354,26 L164.88354,5.18588874 L159.685977,5.18588874 L159.685977,0 L175.314023,0 Z M199.628246,0 C200.335401,0 200.948259,0.246944613 201.46684,0.740841248 C201.961848,1.25825677 202.209349,1.86973867 202.209349,2.57530529 L202.209349,26 L197.011786,26 L197.011786,5.18588874 L191.778865,5.18588874 L191.778865,26 L186.581302,26 L186.581302,0 L199.628246,0 Z M229.104674,0 L229.104674,5.18588874 L218.674191,5.18588874 L218.674191,10.4070556 L226.523572,10.4070556 L226.523572,15.5929444 L218.674191,15.5929444 L218.674191,20.8141113 L229.104674,20.8141113 L229.104674,26 L213.476628,26 L213.476628,0 L229.104674,0 Z M253.418897,0 C254.126052,0 254.738911,0.246944613 255.257491,0.740841248 C255.752499,1.25825677 256,1.86973867 256,2.57530529 L256,10.4070556 C256,11.1126223 255.752499,11.7241042 255.257491,12.2415197 C254.738911,12.7354163 254.126052,12.9823609 253.418897,12.9823609 C254.126052,12.9823609 254.738911,13.2410648 255.257491,13.7584803 C255.752499,14.252377 256,14.8638589 256,15.5929444 L256,26 L250.802437,26 L250.802437,15.5929444 L245.569517,15.5929444 L245.569517,26 L240.371954,26 L240.371954,0 L253.418897,0 Z M89.4304834,5.18588874 L84.1975629,5.18588874 L84.1975629,10.4070556 L89.4304834,10.4070556 L89.4304834,5.18588874 Z M116.325809,5.18588874 L111.092889,5.18588874 L111.092889,10.4070556 L116.325809,10.4070556 L116.325809,5.18588874 Z M143.221135,5.18588874 L137.988214,5.18588874 L137.988214,10.4070556 L143.221135,10.4070556 L143.221135,5.18588874 Z M250.802437,5.18588874 L245.569517,5.18588874 L245.569517,10.4070556 L250.802437,10.4070556 L250.802437,5.18588874 Z"
                              id="Combined-Shape" fill="#ED7932"></path>
                    </g>
                </g>
            </g>
        </g>
    </g>
</svg>