<svg xmlns="http://www.w3.org/2000/svg" viewBox="0 0 427.83 248.21"><path d="M213.89,248c-25.16,0-50.33-.31-75.48.17-9.06.17-19.08-7.15-18.76-18.86.38-14,0-28,.1-42,.09-24.38,18.41-45.36,41.31-49.69a54.73,54.73,0,0,1,9.89-1c28.49-.08,57,.17,85.49-.11,23.69-.24,47.6,17.5,51.41,45.35a37.88,37.88,0,0,1,.21,5c0,14.49-.23,29,.12,43.49.22,9.13-8.59,18-17.8,17.74-12.82-.41-25.66-.09-38.49-.09h-38Z"/><path d="M214,120c-31.21.78-60.29-24.82-60.18-60.1.09-32.16,25-60.14,60.5-59.93C249.32.23,274,27.94,274,60.25,274,95.14,245.26,120.68,214,120Z"/><path d="M59.3,188.65q-18.48,0-37,0a47.62,47.62,0,0,1-5.47-.3C6.85,187.09.48,181.08.21,171.05a372.28,372.28,0,0,1,.68-39.39c1.26-15.71,16.15-28.89,31.9-29,27-.19,54-.29,80.92.06,13.09.17,22.63,7,28.73,18.45,2.28,4.3,2.11,4.42-2.23,6.72-17.34,9.19-29.07,23-34.31,42-1.36,4.93-1.87,10.1-2.66,15.18-.52,3.38-.43,3.5-4,3.52C85.94,188.68,72.62,188.65,59.3,188.65Z"/><path d="M355.18,102.58c12.83,0,25.66.2,38.48,0,14.95-.29,31,11.74,33.45,29.27a66.18,66.18,0,0,1,.64,8.44c.08,9.66.12,19.32,0,29-.14,11.88-7.52,19.34-19.44,19.4-26.32.11-52.64,0-79,0-4.3,0-4.39-.08-4.78-4.22-1.32-13.88-5.53-26.64-14.21-37.75a68.53,68.53,0,0,0-23-18.88c-4.11-2.12-4.22-2.21-1.89-6.29,6.78-11.85,16.67-18.82,30.69-18.9C329.2,102.52,342.19,102.58,355.18,102.58Z"/><path d="M120.22,42.93c.63,22.5-17.52,43.6-43.87,43.07-25.81-.53-42-22.06-41.95-43.15C34.49,22.18,49.94,0,77.67,0A42,42,0,0,1,120.22,42.93Z"/><path d="M393.25,43.29C393.89,65.06,375.86,86,350.54,86c-25.84,0-43.09-21.22-43.1-43,0-21.53,16.8-43.15,43.14-43C377.53.15,394.14,22.06,393.25,43.29Z"/></svg>
